<?xml version="1.0" encoding="UTF-8"?>
<svg version="1.1" xmlns="http://www.w3.org/2000/svg" width="400" height="400">
<path d="M0 0 C2.04677312 0.01067671 4.09265832 0.00006158 6.1394043 -0.01269531 C17.66423823 -0.02521733 29.74003058 0.11911881 40.24682617 5.26074219 C41.31932617 5.42574219 42.39182617 5.59074219 43.49682617 5.76074219 C46.68893314 6.34112527 47.04722552 7.03451199 49.24682617 9.26074219 C50.74771092 10.16953479 52.27125613 11.04140839 53.80932617 11.88574219 C68.98324015 20.88422606 78.09243288 34.09789292 84.24682617 50.26074219 C84.57867416 51.00770859 84.91052216 51.75467499 85.25242615 52.52427673 C89.83643968 65.13891305 88.58873096 80.45183569 88.61791992 93.66308594 C88.62691437 95.79667717 88.63603658 97.93026786 88.64527893 100.06385803 C88.66165514 104.51060505 88.66944876 108.95727777 88.67236328 113.40405273 C88.67775156 119.056561 88.71550045 124.70835635 88.76110744 130.36066341 C88.79107131 134.75947026 88.79809093 139.15810879 88.79908943 143.55700874 C88.80324923 145.63909756 88.81550896 147.7211889 88.83660698 149.80317497 C89.01490854 168.90745659 85.35377292 183.40641657 76.24682617 200.26074219 C75.81241211 201.25976562 75.37799805 202.25878906 74.93041992 203.28808594 C72.80233877 207.04555638 70.22344847 209.39187546 66.93432617 212.13574219 C66.32419678 212.65168945 65.71406738 213.16763672 65.08544922 213.69921875 C49.80564963 226.26074219 49.80564963 226.26074219 42.24682617 226.26074219 C42.24682617 226.92074219 42.24682617 227.58074219 42.24682617 228.26074219 C37.79182617 229.25074219 37.79182617 229.25074219 33.24682617 230.26074219 C34.63716611 234.82336429 36.50743876 238.95629235 38.72338867 243.16308594 C39.40106008 244.47853836 40.07812512 245.7943033 40.75463867 247.11035156 C41.81278615 249.15860871 42.87503053 251.20433614 43.94799805 253.24487305 C44.99022833 255.23204285 46.0141944 257.22779727 47.03588867 259.22558594 C47.51863754 260.12747902 47.51863754 260.12747902 48.01113892 261.04759216 C50.1387705 265.25228772 50.98670475 268.57824705 50.24682617 273.26074219 C46.37078221 277.03738798 41.58911802 276.77389718 36.47338867 276.83496094 C35.63141937 276.84968948 34.78945007 276.86441803 33.92196655 276.8795929 C32.14525373 276.90348356 30.36841006 276.91894641 28.59155273 276.92651367 C25.8857965 276.94813058 23.18571157 277.0283594 20.48120117 277.11035156 C8.00122488 277.30637896 8.00122488 277.30637896 3.53100586 274.64208984 C0.14433844 270.96165401 -1.39836426 267.04069802 -2.75317383 262.26074219 C-4.46843008 258.56640159 -6.33743978 254.9499753 -8.19067383 251.32324219 C-9.17045774 249.39843673 -10.14836732 247.47267587 -11.12426758 245.54589844 C-11.59541992 244.63638428 -12.06657227 243.72687012 -12.55200195 242.78979492 C-13.58846336 240.60753807 -14.22902405 238.61121175 -14.87426758 236.29980469 C-17.9650724 231.30054034 -22.88715203 230.88203412 -28.37817383 229.57324219 C-38.3428593 227.03644497 -47.23733005 224.50395158 -55.56567383 218.26074219 C-56.9056543 217.27074219 -56.9056543 217.27074219 -58.27270508 216.26074219 C-65.87832067 210.12834033 -71.61443685 202.087606 -75.75317383 193.26074219 C-75.75317383 192.60074219 -75.75317383 191.94074219 -75.75317383 191.26074219 C-76.41317383 191.26074219 -77.07317383 191.26074219 -77.75317383 191.26074219 C-78.40211619 189.1992183 -79.04720023 187.13647961 -79.69067383 185.07324219 C-80.05032227 183.9246875 -80.4099707 182.77613281 -80.78051758 181.59277344 C-82.08291592 177.13114377 -82.87557311 173.05188142 -82.90707397 168.40129089 C-82.91567444 167.44991241 -82.9242749 166.49853394 -82.93313599 165.51832581 C-82.93739594 164.48610397 -82.94165588 163.45388214 -82.94604492 162.39038086 C-82.95422241 161.2936908 -82.9623999 160.19700073 -82.9708252 159.06707764 C-82.99563269 155.43762752 -83.01218871 151.80821658 -83.02661133 148.17871094 C-83.03193501 146.93452204 -83.03725868 145.69033314 -83.04274368 144.40844154 C-83.06396797 139.17119147 -83.08309425 133.9339472 -83.09436607 128.69666576 C-83.11054124 121.23383175 -83.14356644 113.77152358 -83.20076692 106.30888766 C-83.24447674 100.40092613 -83.26014563 94.4931242 -83.26649857 88.58501625 C-83.2731739 86.08901552 -83.28829759 83.5930213 -83.31238937 81.09712791 C-83.43786724 67.30428385 -83.13360557 55.10379932 -77.75317383 42.26074219 C-77.09317383 42.26074219 -76.43317383 42.26074219 -75.75317383 42.26074219 C-74.76317383 39.29074219 -73.77317383 36.32074219 -72.75317383 33.26074219 C-72.09317383 33.26074219 -71.43317383 33.26074219 -70.75317383 33.26074219 C-70.48762695 32.679375 -70.22208008 32.09800781 -69.94848633 31.49902344 C-62.46389165 17.483753 -46.68546825 8.61257476 -32.06567383 3.88574219 C-21.50222137 0.75907715 -10.96509156 -0.06770986 0 0 Z M-29.56567383 54.94824219 C-35.18421017 63.4563115 -36.89157818 72.6702029 -36.94604492 82.70019531 C-36.95831116 83.95743912 -36.95831116 83.95743912 -36.9708252 85.24008179 C-36.99558487 88.0073782 -37.01217536 90.77462345 -37.02661133 93.54199219 C-37.03193501 94.49204636 -37.03725868 95.44210052 -37.04274368 96.42094421 C-37.06944055 101.45444937 -37.08882233 106.48793009 -37.10327148 111.52148438 C-37.11657833 115.66689273 -37.14437597 119.81180508 -37.18530273 123.95703125 C-37.23489747 128.98142999 -37.25942557 134.00538103 -37.26649857 139.03001404 C-37.27316803 140.93400464 -37.28827618 142.83798696 -37.31238937 144.74183655 C-37.46841753 157.81160445 -36.93106529 169.0523384 -28.44067383 179.76074219 C-19.72568644 188.64404479 -9.52952017 191.34673915 2.74682617 191.63574219 C13.37130545 191.37501877 23.17241565 189.59673744 31.24682617 182.26074219 C41.54693911 170.43980721 41.84079905 157.20152489 41.74291992 142.35839844 C41.74307522 140.42988531 41.7445692 138.50137188 41.74732971 136.57286072 C41.74870818 132.54590935 41.73624964 128.51931651 41.71337891 124.49243164 C41.68501542 119.36067405 41.68773398 114.22951214 41.70046902 109.09771061 C41.7074635 105.11941038 41.69959379 101.14124496 41.68721199 97.16296196 C41.68273267 95.27215532 41.68232948 93.38133402 41.68627739 91.4905262 C41.7019725 77.36069713 41.63328717 63.70099933 31.75463867 52.58105469 C22.81971506 43.98813772 10.1859145 42.85469701 -1.60473633 43.04980469 C-12.9199459 43.47003943 -21.42614206 47.17046738 -29.56567383 54.94824219 Z " fill="#FE3030" transform="translate(196.753173828125,63.7392578125)"/>
<path d="M0 0 C0 0.99 0 1.98 0 3 C-1.98 3.99 -1.98 3.99 -4 5 C-2.68 3.35 -1.36 1.7 0 0 Z " fill="#1F1F1E" transform="translate(275,263)"/>
<path d="M0 0 C0.33 0.99 0.66 1.98 1 3 C0.01 3.495 0.01 3.495 -1 4 C-0.67 2.68 -0.34 1.36 0 0 Z " fill="#1E1E1C" transform="translate(222,60)"/>
<path d="M0 0 C0.66 0.66 1.32 1.32 2 2 C1.01 2.495 1.01 2.495 0 3 C0 2.01 0 1.02 0 0 Z " fill="#1D1D1E" transform="translate(230,63)"/>
<path d="M0 0 C0.99 0.495 0.99 0.495 2 1 C1.34 1.66 0.68 2.32 0 3 C0 2.01 0 1.02 0 0 Z " fill="#1F1F20" transform="translate(215,60)"/>
<path d="M0 0 C0.66 0.66 1.32 1.32 2 2 C1.34 2 0.68 2 0 2 C0 1.34 0 0.68 0 0 Z " fill="#1D1D1C" transform="translate(284,99)"/>
<path d="" fill="#222224" transform="translate(0,0)"/>
<path d="" fill="#242428" transform="translate(0,0)"/>
<path d="" fill="#1E1E1B" transform="translate(0,0)"/>
<path d="" fill="#20201D" transform="translate(0,0)"/>
<path d="" fill="#1D1D1C" transform="translate(0,0)"/>
</svg>
